<svg width="2057" height="954" viewBox="0 0 2057 954" fill="none" xmlns="http://www.w3.org/2000/svg">
<rect width="2057" height="954" fill="white"/>
<path d="M1082.52 645.244H1156.61V319.382H1082.52V445.565H978.086V319.382H904V645.244H978.086V515.519H1082.52V645.244Z" fill="#073A53"/>
<path d="M1325.37 651C1372.24 651 1409.73 631.519 1436.06 596.985L1390.53 559.351C1373.13 581.046 1351.71 591.672 1326.71 591.672C1295.47 591.672 1272.71 574.847 1266.02 546.954H1436.06C1445.88 448.664 1386.52 404.832 1321.8 404.832C1253.07 404.832 1199.52 454.863 1199.52 528.802C1199.52 600.527 1249.95 651 1325.37 651ZM1266.91 498.695C1274.5 476.115 1294.58 461.504 1321.36 461.504C1347.69 461.504 1365.54 474.786 1370.9 498.695H1266.91Z" fill="#073A53"/>
<path d="M1477.39 645.244H1547.9V303H1477.39V645.244Z" fill="#073A53"/>
<path d="M1596.81 645.244H1667.32V410.588H1596.81V645.244ZM1596.81 374.725H1667.32V303H1596.81V374.725Z" fill="#073A53"/>
<path d="M1823.79 649.672C1850.12 649.672 1876 640.817 1892.07 623.992L1892.52 645.244H1955V410.588H1892.52L1892.07 431.84C1876 415.015 1850.12 406.16 1823.79 406.16C1759.97 406.16 1705.96 455.748 1705.96 527.916C1705.96 600.084 1759.97 649.672 1823.79 649.672ZM1776.48 527.916C1776.48 492.496 1800.58 469.916 1833.16 469.916C1865.29 469.916 1888.95 492.496 1888.95 527.916C1888.95 563.336 1865.29 585.916 1833.16 585.916C1800.58 585.916 1776.48 563.336 1776.48 527.916Z" fill="#073A53"/>
<path d="M834.464 688.607V266.869L468.267 56L102.132 266.869V688.607L468.267 899.476L834.433 688.607H834.464Z" fill="#073A53"/>
<path d="M329.544 735.265L299.842 772.784L312.849 735.265C312.849 735.265 329.529 735.703 329.529 735.265H329.56H329.544Z" fill="#F7DF1E"/>
<path d="M274.799 653.975C265.638 658.587 257.399 669.764 255.273 679.738C253.147 689.712 249.817 709.127 235.748 713.77C235.748 713.77 244.237 717.819 254.414 710.878C264.59 703.953 272.641 689.352 270.797 677.127C268.264 660.478 275.393 653.709 274.799 654.006V653.975Z" fill="#F7DF1E"/>
<path d="M528.69 585.004C528.69 585.004 533.77 593.023 554.702 592.836C575.619 592.617 580.09 584.222 570.726 573.467C561.331 562.711 550.013 559.413 535.365 563.305C520.701 567.229 506.444 578.36 515.058 595.149C523.671 611.939 560.408 662.964 575.838 677.424C575.838 677.424 589.548 655.726 591.924 638.467C594.628 619.224 595.77 596.931 584.42 600.449C573.102 603.935 539.07 613.627 528.69 584.988V585.019V585.004Z" fill="#F7DF1E"/>
<path d="M631.287 550.799C631.287 550.799 640.823 573.482 647.264 583.956C653.704 594.461 657.425 597.557 676.137 604.154C694.85 610.735 767.714 636.513 776.64 638.358C776.64 638.358 703.526 585.598 696.491 580.267C689.441 574.905 678.388 574.436 669.493 575.124C655.58 576.14 642.902 568.746 631.256 550.83H631.287V550.799Z" fill="#F7DF1E"/>
<path d="M659.16 633.684C659.16 633.684 654.533 649.614 662.568 665.387C670.635 681.16 679.561 683.193 688.456 684.412C697.351 685.631 712.265 690.134 716.376 702.437C716.376 702.437 721.347 686.476 707.481 675.392C693.615 664.34 675.403 664.433 667.821 655.054C659.019 644.158 659.942 638.983 659.176 633.653V633.684H659.16Z" fill="#F7DF1E"/>
<path d="M610.449 682.114L650.015 766.531L615.654 728.137C615.654 728.137 615.842 702.734 607.807 692.244L610.417 682.114H610.449Z" fill="#F7DF1E"/>
<path d="M570.288 757.151L565.63 791.543L554.655 773.19L570.288 757.151Z" fill="#F7DF1E"/>
<path d="M757.287 533.056C737.73 531.665 736.527 510.701 716.095 506.215C695.663 501.728 676.106 509.247 654.627 502.572L650.859 496.726L654.517 488.409L811.626 463.975L654.486 439.525C654.205 438.869 654.127 438.681 653.861 438.009C659.004 430.755 667.633 421.751 678.076 423.283C695.178 425.784 709.279 432.006 720.269 423.127C731.258 414.247 732.212 398.411 752.441 403.57C774.514 409.182 787.99 406.634 794.884 387.468C794.884 387.468 778.188 395.347 762.68 387.797C747.173 380.246 736.323 375.181 722.082 382.904C707.841 390.626 700.368 389.157 694.443 387.187C688.566 385.233 670.697 378.058 642.746 390.83L765.51 291.968L617.827 349.121C617.906 340.195 619.844 327.361 629.583 322.64C645.138 315.089 660.286 312.306 664.382 298.784C668.477 285.262 660.364 271.646 679.983 264.517C701.4 256.748 711.108 247.055 706.027 227.327C706.027 227.327 696.663 243.225 679.592 245.711C662.521 248.197 650.703 250.104 643.278 264.502C635.852 278.899 628.833 281.885 622.846 283.589C616.936 285.262 598.427 289.326 582.591 314.964C582.279 314.808 582.404 314.87 582.091 314.714L639.619 166.062L539.68 290.186C539.554 290.092 539.601 290.124 539.476 290.03C553.811 263.517 548.106 245.445 546.605 239.474C545.088 233.424 544.182 225.857 552.952 212.241C561.722 198.625 557.485 187.432 551.138 171.393C544.791 155.354 553.89 139.299 553.89 139.299C534.255 144.724 530.706 157.98 534.63 180.413C538.241 200.986 522.39 200.736 512.697 211.022C503.021 221.308 508.164 235.831 509.368 253.074C510.134 264.001 499.722 272.146 491.984 276.633L467.613 119.946L443.116 277.43C442.6 277.399 442.803 277.414 442.288 277.367C441.334 247.306 427.327 234.565 423.044 230.172C418.698 225.701 414.102 219.62 414.852 203.44C415.603 187.26 406.301 179.71 392.748 169.048C379.194 158.387 379.006 139.924 379.006 139.924C364.765 154.494 368.345 167.735 383.024 185.15C396.484 201.111 382.649 208.88 379.46 222.637C376.255 236.394 388.011 246.368 397.719 260.672C403.737 269.535 399.173 281.463 394.827 289.248L295.621 166.047L353.15 314.698C352.837 314.855 352.962 314.792 352.65 314.948C336.814 289.311 318.305 285.262 312.395 283.573C306.392 281.869 299.389 278.884 291.963 264.486C284.538 250.088 272.72 248.181 255.649 245.695C238.578 243.21 229.214 227.311 229.214 227.311C224.133 247.04 233.841 256.732 255.258 264.502C274.877 271.63 266.763 285.246 270.859 298.768C274.955 312.291 290.103 315.073 305.658 322.624C315.397 327.345 317.335 340.18 317.413 349.106L169.731 291.953L292.495 390.814C264.544 378.042 246.675 385.217 240.798 387.171C234.873 389.141 227.4 390.611 213.159 382.888C198.917 375.166 188.084 380.231 172.561 387.781C157.053 395.332 140.357 387.453 140.357 387.453C147.251 406.619 160.727 409.167 182.8 403.555C203.029 398.411 203.982 414.232 214.972 423.111C225.962 431.99 240.047 425.769 257.165 423.267C267.608 421.735 276.237 430.74 281.38 437.993C281.099 438.65 281.021 438.838 280.755 439.51L123.615 463.959L280.723 488.393L268.905 495.663C264.387 498.445 260.948 502.682 259.166 507.668L257.04 513.625C254.758 520.018 250.005 525.271 243.799 527.991C235.217 531.743 226.744 531.696 216.723 529.757C200.371 526.568 186.974 531.587 176.062 538.95C168.418 544.108 162.087 558.584 156.225 563.774C150.362 568.964 136.512 564.79 136.512 564.79C145.547 579.016 171.748 579.813 178.126 572.028C189.663 557.928 207.781 555.02 223.086 559.929C237.124 564.446 254.961 556.771 264.95 547.563C274.424 538.871 273.658 527.803 286.977 519.956C298.607 513.093 313.177 513.249 313.177 513.249C312.677 519.987 309.941 532.087 301.359 540.951C291.057 551.581 169.669 652.271 169.669 652.271L302.218 588.787C303.954 629.479 312.005 674.094 319.368 691.759C322.541 699.341 326.903 706.438 332.202 713.614C347.1 733.78 366.203 750.413 387.745 763.216L387.901 763.123C410.788 776.754 442.053 792.966 463.251 794.638C478.243 791.574 480.557 782.585 480.557 769.063C480.557 755.541 474.475 751.648 468.128 751.289C461.766 750.914 457.514 746.771 453.512 741.049C449.494 735.328 460.828 734.749 476.429 734.499C492.047 734.218 495.189 726.714 498.737 717.553C502.255 708.408 488.404 707.533 460.484 710.847C436.879 713.63 429.438 709.8 427.53 706.579C440.677 694.605 456.107 683.755 464.158 685.835C477.68 689.414 480.291 681.754 476.992 679.441C474.053 677.393 460.078 663.605 454.012 659.4C453.371 658.931 446.884 654.757 447.134 654.022C451.323 642.047 458.796 646.409 471.724 649.145C484.652 651.865 496.346 636.935 493.719 631.886C489.827 624.398 486.841 628.603 479.681 614.237C472.302 583.878 479.462 533.587 511.118 524.38C538.788 516.313 569.006 525.208 576.135 527.6C576.838 527.85 577.526 527.225 577.401 526.521L569.507 482.359L563.426 454.533C563.613 453.704 564.379 453.11 565.239 453.235C597.974 457.722 619.907 498.445 630.646 513.75C641.386 529.054 661.724 545.453 678.498 550.017C695.288 554.629 702.103 547.11 713.453 547.422C724.802 547.735 730.977 558.428 749.267 558.522C767.526 558.615 774.233 550.018 785.082 549.861C793.227 549.736 801.246 554.191 801.246 554.191C797.291 543.608 776.812 534.463 757.24 533.072L757.287 533.056ZM342.832 610.813C346.475 620.818 329.888 627.056 322.979 619.052C316.788 611.829 318.43 586.395 352.962 590.272H352.994C352.994 590.272 338.142 597.947 342.832 610.813ZM400.955 608.109C366.938 612.314 358.105 589.99 358.105 589.99V589.959C380.757 597.854 398.141 600.214 400.47 583.909C402.799 567.604 383.868 558.819 368.251 556.192C353.259 553.691 334.234 548.126 334.234 540.419C334.234 532.712 344.755 521.097 383.602 521.097C422.45 521.097 432.674 543.077 435.143 553.332C437.629 563.618 434.956 603.903 400.939 608.109H400.955Z" fill="#F7DF1E"/>
</svg>
