<svg width="1973" height="894" viewBox="0 0 1973 894" fill="none" xmlns="http://www.w3.org/2000/svg">
<path d="M1040.52 615.244H1114.61V289.382H1040.52V415.565H936.086V289.382H862V615.244H936.086V485.519H1040.52V615.244Z" fill="#F7DF1E"/>
<path d="M1283.37 621C1330.24 621 1367.73 601.519 1394.06 566.985L1348.53 529.351C1331.13 551.046 1309.71 561.672 1284.71 561.672C1253.47 561.672 1230.71 544.847 1224.02 516.954H1394.06C1403.88 418.664 1344.52 374.832 1279.8 374.832C1211.07 374.832 1157.52 424.863 1157.52 498.802C1157.52 570.527 1207.95 621 1283.37 621ZM1224.91 468.695C1232.5 446.115 1252.58 431.504 1279.36 431.504C1305.69 431.504 1323.54 444.786 1328.9 468.695H1224.91Z" fill="#F7DF1E"/>
<path d="M1435.39 615.244H1505.9V273H1435.39V615.244Z" fill="#F7DF1E"/>
<path d="M1554.81 615.244H1625.32V380.588H1554.81V615.244ZM1554.81 344.725H1625.32V273H1554.81V344.725Z" fill="#F7DF1E"/>
<path d="M1781.79 619.672C1808.12 619.672 1834 610.817 1850.07 593.992L1850.52 615.244H1913V380.588H1850.52L1850.07 401.84C1834 385.015 1808.12 376.16 1781.79 376.16C1717.97 376.16 1663.96 425.748 1663.96 497.916C1663.96 570.084 1717.97 619.672 1781.79 619.672ZM1734.48 497.916C1734.48 462.496 1758.58 439.916 1791.16 439.916C1823.29 439.916 1846.95 462.496 1846.95 497.916C1846.95 533.336 1823.29 555.916 1791.16 555.916C1758.58 555.916 1734.48 533.336 1734.48 497.916Z" fill="#F7DF1E"/>
<path d="M792 657.456V236.485L426.47 26L61 236.485V657.456L426.47 867.942L791.97 657.456H792Z" fill="#073A53"/>
<path fill-rule="evenodd" clip-rule="evenodd" d="M791.97 657.456L426.47 867.942L61 657.456V236.485L426.47 26L792 236.485V657.456H791.97ZM785.659 653.773V240.151L426.47 33.317L67.3408 240.151V653.791L426.47 860.625L785.659 653.773Z" fill="#F7DF1E"/>
<path d="M287.999 704.03L258.351 741.48L271.334 704.03C271.334 704.03 287.983 704.466 287.983 704.03H288.014H287.999Z" fill="#F7DF1E"/>
<path d="M233.353 622.887C224.209 627.49 215.985 638.648 213.863 648.603C211.741 658.559 208.417 677.939 194.373 682.574C194.373 682.574 202.846 686.615 213.005 679.687C223.163 672.774 231.199 658.2 229.358 645.997C226.83 629.379 233.946 622.622 233.353 622.918V622.887Z" fill="#F7DF1E"/>
<path d="M486.782 554.041C486.782 554.041 491.853 562.046 512.747 561.859C533.626 561.641 538.089 553.261 528.742 542.525C519.364 531.79 508.066 528.497 493.445 532.382C478.808 536.299 464.577 547.409 473.175 564.168C481.773 580.927 518.443 631.86 533.844 646.294C533.844 646.294 547.529 624.635 549.901 607.408C552.601 588.199 553.74 565.947 542.411 569.458C531.114 572.938 497.143 582.613 486.782 554.026V554.057V554.041Z" fill="#F7DF1E"/>
<path d="M589.193 519.899C589.193 519.899 598.711 542.541 605.14 552.996C611.569 563.482 615.283 566.572 633.961 573.157C652.64 579.726 725.371 605.457 734.281 607.299C734.281 607.299 661.3 554.634 654.278 549.313C647.241 543.961 636.208 543.493 627.33 544.179C613.442 545.194 600.787 537.813 589.162 519.93H589.193V519.899Z" fill="#F7DF1E"/>
<path d="M617.015 602.633C617.015 602.633 612.396 618.534 620.417 634.279C628.469 650.023 637.379 652.052 646.258 653.269C655.136 654.486 670.023 658.98 674.127 671.261C674.127 671.261 679.089 655.329 665.248 644.265C651.407 633.233 633.228 633.327 625.66 623.964C616.875 613.088 617.795 607.923 617.031 602.602V602.633H617.015Z" fill="#F7DF1E"/>
<path d="M568.392 650.975L607.887 735.238L573.588 696.914C573.588 696.914 573.776 671.557 565.755 661.087L568.361 650.975H568.392Z" fill="#F7DF1E"/>
<path d="M528.305 725.875L523.655 760.205L512.701 741.885L528.305 725.875Z" fill="#F7DF1E"/>
<path d="M714.963 502.188C695.442 500.8 694.241 479.874 673.846 475.396C653.451 470.917 633.93 478.423 612.49 471.76L608.729 465.924L612.381 457.622L769.204 433.233L612.35 408.828C612.069 408.172 611.991 407.985 611.725 407.314C616.859 400.074 625.473 391.086 635.896 392.615C652.968 395.112 667.043 401.322 678.012 392.459C688.982 383.596 689.934 367.789 710.126 372.938C732.159 378.54 745.61 375.996 752.492 356.866C752.492 356.866 735.826 364.73 720.347 357.193C704.867 349.656 694.038 344.601 679.823 352.309C665.607 360.018 658.148 358.551 652.234 356.585C646.367 354.634 628.531 347.472 600.631 360.221L723.171 261.539L575.758 318.588C575.836 309.678 577.771 296.867 587.492 292.155C603.018 284.618 618.139 281.84 622.227 268.343C626.315 254.845 618.217 241.254 637.8 234.138C659.178 226.383 668.868 216.708 663.797 197.015C663.797 197.015 654.45 212.885 637.41 215.366C620.37 217.847 608.573 219.751 601.161 234.122C593.749 248.494 586.743 251.474 580.767 253.175C574.868 254.845 556.393 258.902 540.586 284.493C540.273 284.337 540.398 284.399 540.086 284.243L597.51 135.862L497.752 259.76C497.627 259.667 497.674 259.698 497.549 259.604C511.858 233.139 506.162 215.101 504.664 209.14C503.151 203.101 502.246 195.549 511 181.957C519.754 168.366 515.525 157.193 509.19 141.183C502.854 125.173 511.936 109.148 511.936 109.148C492.337 114.562 488.795 127.795 492.712 150.187C496.316 170.722 480.493 170.473 470.819 180.74C461.16 191.008 466.294 205.504 467.495 222.716C468.26 233.623 457.867 241.753 450.143 246.231L425.816 89.8296L401.364 247.027C400.849 246.996 401.052 247.011 400.537 246.965C399.585 216.958 385.604 204.24 381.328 199.855C376.99 195.393 372.403 189.322 373.152 173.172C373.901 157.022 364.616 149.485 351.087 138.843C337.558 128.201 337.371 109.772 337.371 109.772C323.155 124.315 326.729 137.532 341.381 154.915C354.817 170.847 341.007 178.602 337.823 192.334C334.625 206.066 346.359 216.021 356.049 230.299C362.057 239.147 357.5 251.053 353.162 258.824L254.138 135.847L311.561 284.228C311.249 284.384 311.374 284.321 311.062 284.477C295.255 258.886 276.78 254.845 270.881 253.16C264.889 251.459 257.898 248.478 250.486 234.107C243.074 219.735 231.277 217.832 214.238 215.35C197.198 212.869 187.851 197 187.851 197C182.779 216.692 192.47 226.367 213.847 234.122C233.431 241.238 225.332 254.829 229.421 268.327C233.509 281.825 248.629 284.602 264.156 292.139C273.877 296.852 275.812 309.663 275.89 318.573L128.476 261.523L251.017 360.205C223.116 347.456 205.281 354.619 199.414 356.569C193.5 358.535 186.041 360.002 171.825 352.294C157.61 344.585 146.796 349.641 131.301 357.178C115.821 364.715 99.156 356.85 99.156 356.85C106.038 375.981 119.488 378.524 141.522 372.922C161.714 367.789 162.665 383.58 173.635 392.443C184.605 401.307 198.665 395.096 215.751 392.599C226.175 391.07 234.788 400.058 239.922 407.299C239.641 407.954 239.563 408.141 239.298 408.812L82.4438 433.217L239.267 457.607L227.47 464.863C222.96 467.64 219.527 471.869 217.749 476.847L215.626 482.792C213.348 489.174 208.604 494.417 202.41 497.132C193.843 500.878 185.385 500.831 175.383 498.896C159.061 495.713 145.688 500.721 134.796 508.071C127.166 513.221 120.846 527.67 114.994 532.851C109.143 538.031 95.3174 533.865 95.3174 533.865C104.337 548.065 130.489 548.861 136.856 541.09C148.372 527.015 166.457 524.112 181.734 529.012C195.747 533.522 213.551 525.86 223.522 516.669C232.978 507.993 232.214 496.945 245.509 489.112C257.118 482.262 271.661 482.418 271.661 482.418C271.162 489.143 268.431 501.221 259.864 510.068C249.581 520.679 128.414 621.187 128.414 621.187L260.723 557.818C262.455 598.436 270.491 642.97 277.841 660.603C281.008 668.171 285.362 675.255 290.652 682.418C305.523 702.547 324.591 719.15 346.094 731.93L346.25 731.836C369.094 745.443 400.303 761.625 421.462 763.295C436.427 760.236 438.736 751.264 438.736 737.766C438.736 724.268 432.666 720.383 426.331 720.024C419.98 719.65 415.736 715.514 411.741 709.803C407.731 704.092 419.044 703.515 434.617 703.265C450.206 702.984 453.342 695.494 456.884 686.35C460.395 677.222 446.57 676.348 418.7 679.656C395.138 682.433 387.71 678.61 385.807 675.396C398.93 663.443 414.331 652.614 422.367 654.689C435.865 658.262 438.471 650.616 435.179 648.307C432.245 646.263 418.295 632.5 412.24 628.302C411.601 627.834 405.125 623.668 405.374 622.934C409.556 610.981 417.015 615.335 429.92 618.066C442.825 620.781 454.497 605.879 451.875 600.839C447.99 593.364 445.009 597.562 437.863 583.221C430.497 552.918 437.644 502.719 469.243 493.528C496.862 485.476 527.025 494.355 534.141 496.742C534.843 496.992 535.53 496.368 535.405 495.666L527.525 451.584L521.455 423.808C521.642 422.981 522.407 422.388 523.265 422.513C555.94 426.991 577.833 467.64 588.553 482.917C599.273 498.194 619.574 514.562 636.318 519.119C653.077 523.722 659.88 516.217 671.209 516.529C682.538 516.841 688.701 527.514 706.958 527.608C725.184 527.701 731.878 519.119 742.708 518.963C750.838 518.838 758.843 523.285 758.843 523.285C754.895 512.721 734.453 503.593 714.917 502.204L714.963 502.188ZM301.263 579.804C304.898 589.791 288.342 596.017 281.445 588.027C275.266 580.818 276.904 555.43 311.374 559.3H311.405C311.405 559.3 296.581 566.962 301.263 579.804ZM359.279 577.104C325.324 581.302 316.508 559.019 316.508 559.019V558.988C339.119 566.868 356.471 569.224 358.796 552.949C361.121 536.674 342.224 527.904 326.635 525.283C311.671 522.786 292.68 517.231 292.68 509.538C292.68 501.845 303.182 490.251 341.959 490.251C380.735 490.251 390.94 512.191 393.406 522.427C395.887 532.695 393.219 572.907 359.264 577.104H359.279Z" fill="#F7DF1E"/>
</svg>
