<?xml version="1.0" encoding="UTF-8"?>
<!DOCTYPE svg PUBLIC "-//W3C//DTD SVG 1.1//EN" "http://www.w3.org/Graphics/SVG/1.1/DTD/svg11.dtd">
<svg version="1.1" xmlns="http://www.w3.org/2000/svg" xmlns:xlink="http://www.w3.org/1999/xlink" x="0" y="0" width="731" height="1142" viewBox="0, 0, 731, 1142">
  <g id="Layer_1">
    <g>
      <path d="M124.166,1137.772 L175.695,1137.772 L175.695,911.164 L124.166,911.164 L124.166,998.912 L51.529,998.912 L51.529,911.164 L-0,911.164 L-0,1137.772 L51.529,1137.772 L51.529,1047.562 L124.166,1047.562 L124.166,1137.772 z" fill="#073A53"/>
      <path d="M293.078,1141.772 C325.671,1141.772 351.746,1128.222 370.06,1104.212 L338.398,1078.042 C326.292,1093.122 311.392,1100.512 294.009,1100.512 C272.28,1100.512 256.449,1088.812 251.792,1069.422 L370.06,1069.422 C376.89,1001.072 335.604,970.582 290.594,970.582 C242.79,970.582 205.541,1005.382 205.541,1056.792 C205.541,1106.672 240.617,1141.772 293.078,1141.772 z M252.413,1035.862 C257.69,1020.152 271.659,1009.992 290.284,1009.992 C308.598,1009.992 321.015,1019.232 324.74,1035.862 L252.413,1035.862 z" fill="#073A53"/>
      <path d="M398.808,1137.772 L447.853,1137.772 L447.853,899.772 L398.808,899.772 L398.808,1137.772 z" fill="#073A53"/>
      <path d="M481.868,1137.772 L530.913,1137.772 L530.913,974.592 L481.868,974.592 L481.868,1137.772 z M481.868,949.65 L530.913,949.65 L530.913,899.772 L481.868,899.772 L481.868,949.65 z" fill="#073A53"/>
      <path d="M639.738,1140.852 C658.053,1140.852 676.057,1134.692 687.232,1122.992 L687.542,1137.772 L731,1137.772 L731,974.592 L687.542,974.592 L687.232,989.372 C676.057,977.672 658.053,971.512 639.738,971.512 C595.349,971.512 557.789,1005.992 557.789,1056.182 C557.789,1106.362 595.349,1140.852 639.738,1140.852 z M606.834,1056.182 C606.834,1031.552 623.596,1015.842 646.257,1015.842 C668.607,1015.842 685.059,1031.552 685.059,1056.182 C685.059,1080.812 668.607,1096.512 646.257,1096.512 C623.596,1096.512 606.834,1080.812 606.834,1056.182 z" fill="#073A53"/>
      <path d="M728,626.501 L728,208.985 L365.47,0.228 L3,208.985 L3,626.501 L365.47,835.258 L727.97,626.501 L728,626.501 z" fill="#073A53"/>
      <path d="M228.136,672.691 L198.731,709.834 L211.607,672.691 C211.607,672.691 228.12,673.125 228.12,672.691 L228.151,672.691 L228.136,672.691 z" fill="#F7DF1E"/>
      <path d="M173.938,592.215 C164.869,596.781 156.713,607.846 154.608,617.72 C152.504,627.594 149.207,646.815 135.279,651.412 C135.279,651.412 143.682,655.42 153.757,648.549 C163.832,641.693 171.802,627.238 169.976,615.136 C167.469,598.653 174.526,591.952 173.938,592.246 L173.938,592.215 z" fill="#F7DF1E"/>
      <path d="M425.287,523.935 C425.287,523.935 430.317,531.874 451.039,531.688 C471.747,531.472 476.173,523.161 466.903,512.513 C457.601,501.866 446.397,498.6 431.895,502.454 C417.379,506.338 403.264,517.357 411.792,533.979 C420.319,550.6 456.688,601.115 471.963,615.43 C471.963,615.43 485.536,593.949 487.888,576.863 C490.566,557.812 491.695,535.743 480.46,539.225 C469.255,542.677 435.563,552.272 425.287,523.919 L425.287,523.95 L425.287,523.935 z" fill="#F7DF1E"/>
      <path d="M526.857,490.072 C526.857,490.072 536.298,512.528 542.674,522.897 C549.05,533.297 552.734,536.362 571.259,542.893 C589.784,549.408 661.918,574.928 670.755,576.755 C670.755,576.755 598.373,524.522 591.409,519.245 C584.429,513.937 573.487,513.472 564.681,514.153 C550.907,515.159 538.356,507.839 526.826,490.103 L526.857,490.103 L526.857,490.072 z" fill="#F7DF1E"/>
      <path d="M554.451,572.127 C554.451,572.127 549.87,587.897 557.825,603.513 C565.811,619.128 574.648,621.14 583.454,622.347 C592.26,623.555 607.024,628.012 611.094,640.192 C611.094,640.192 616.016,624.39 602.288,613.418 C588.561,602.476 570.531,602.569 563.025,593.283 C554.312,582.496 555.225,577.374 554.467,572.096 L554.467,572.127 L554.451,572.127 z" fill="#F7DF1E"/>
      <path d="M506.228,620.073 L545.398,703.644 L511.381,665.635 C511.381,665.635 511.567,640.486 503.612,630.101 L506.197,620.073 L506.228,620.073 z" fill="#F7DF1E"/>
      <path d="M466.469,694.358 L461.857,728.406 L450.993,710.237 L466.469,694.358 z" fill="#F7DF1E"/>
      <path d="M651.596,472.507 C632.235,471.13 631.043,450.376 610.816,445.934 C590.588,441.493 571.228,448.937 549.963,442.329 L546.234,436.54 L549.855,428.307 L705.391,404.118 L549.824,379.913 C549.546,379.263 549.468,379.077 549.205,378.412 C554.297,371.231 562.84,362.317 573.178,363.833 C590.109,366.309 604.068,372.469 614.948,363.678 C625.828,354.888 626.772,339.211 646.798,344.318 C668.65,349.874 681.991,347.351 688.816,328.377 C688.816,328.377 672.287,336.177 656.935,328.702 C641.583,321.227 630.842,316.213 616.743,323.858 C602.644,331.503 595.247,330.049 589.381,328.099 C583.562,326.164 565.873,319.061 538.202,331.705 L659.736,233.833 L513.532,290.414 C513.61,281.577 515.529,268.871 525.171,264.197 C540.569,256.722 555.566,253.968 559.621,240.581 C563.675,227.194 555.643,213.714 575.066,206.657 C596.268,198.965 605.879,189.37 600.849,169.839 C600.849,169.839 591.579,185.578 574.679,188.039 C557.779,190.5 546.079,192.388 538.728,206.641 C531.377,220.895 524.428,223.851 518.5,225.538 C512.65,227.194 494.326,231.218 478.649,256.599 C478.34,256.444 478.463,256.506 478.154,256.351 L535.106,109.188 L436.167,232.069 C436.043,231.976 436.09,232.007 435.966,231.914 C450.157,205.666 444.509,187.776 443.023,181.864 C441.522,175.875 440.624,168.384 449.306,154.904 C457.988,141.425 453.794,130.344 447.511,114.465 C441.228,98.587 450.235,82.693 450.235,82.693 C430.797,88.063 427.284,101.187 431.168,123.395 C434.743,143.762 419.05,143.514 409.455,153.697 C399.875,163.881 404.967,178.258 406.159,195.328 C406.917,206.146 396.61,214.209 388.949,218.651 L364.822,63.533 L340.57,219.44 C340.06,219.409 340.261,219.425 339.75,219.378 C338.806,189.618 324.939,177.004 320.699,172.656 C316.397,168.229 311.847,162.209 312.589,146.191 C313.332,130.174 304.124,122.699 290.706,112.144 C277.288,101.589 277.103,83.312 277.103,83.312 C263.004,97.735 266.548,110.844 281.08,128.084 C294.405,143.885 280.708,151.577 277.551,165.196 C274.379,178.815 286.017,188.689 295.628,202.85 C301.586,211.625 297.067,223.433 292.764,231.14 L194.552,109.172 L251.505,256.336 C251.195,256.49 251.319,256.428 251.01,256.583 C235.332,231.202 217.008,227.194 211.158,225.522 C205.216,223.835 198.282,220.88 190.931,206.626 C183.58,192.372 171.88,190.484 154.98,188.024 C138.08,185.563 128.81,169.824 128.81,169.824 C123.78,189.354 133.391,198.95 154.593,206.641 C174.016,213.699 165.983,227.178 170.038,240.565 C174.093,253.952 189.089,256.707 204.488,264.182 C214.13,268.856 216.049,281.562 216.126,290.399 L69.923,233.818 L191.457,331.689 C163.786,319.045 146.096,326.149 140.277,328.083 C134.412,330.033 127.014,331.488 112.916,323.843 C98.817,316.197 88.092,321.212 72.724,328.687 C57.371,336.162 40.843,328.362 40.843,328.362 C47.668,347.336 61.008,349.858 82.861,344.302 C102.887,339.211 103.831,354.872 114.711,363.663 C125.591,372.453 139.535,366.294 156.481,363.818 C166.819,362.301 175.362,371.215 180.454,378.396 C180.175,379.046 180.098,379.232 179.835,379.897 L24.268,404.102 L179.804,428.292 L168.104,435.488 C163.631,438.243 160.226,442.437 158.462,447.374 L156.357,453.27 C154.098,459.6 149.393,464.8 143.249,467.493 C134.752,471.207 126.364,471.161 116.444,469.242 C100.256,466.084 86.993,471.052 76.19,478.342 C68.623,483.449 62.355,497.78 56.551,502.918 C50.748,508.056 37.036,503.924 37.036,503.924 C45.981,518.007 71.919,518.796 78.233,511.089 C89.655,497.13 107.592,494.251 122.743,499.111 C136.641,503.583 154.299,495.985 164.188,486.869 C173.567,478.264 172.808,467.307 185.994,459.538 C197.508,452.744 211.932,452.899 211.932,452.899 C211.437,459.569 208.729,471.548 200.232,480.323 C190.033,490.846 69.861,590.529 69.861,590.529 L201.083,527.68 C202.801,567.964 210.772,612.133 218.061,629.621 C221.202,637.127 225.52,644.154 230.767,651.257 C245.516,671.222 264.427,687.688 285.754,700.363 L285.908,700.27 C308.566,713.766 339.518,729.814 360.504,731.47 C375.345,728.437 377.636,719.538 377.636,706.151 C377.636,692.764 371.616,688.911 365.332,688.555 C359.034,688.183 354.824,684.082 350.862,678.418 C346.885,672.754 358.105,672.181 373.55,671.933 C389.011,671.655 392.122,664.226 395.635,655.157 C399.117,646.104 385.405,645.237 357.764,648.518 C334.395,651.273 327.029,647.481 325.141,644.293 C338.156,632.438 353.431,621.698 361.401,623.756 C374.788,627.3 377.373,619.717 374.107,617.426 C371.198,615.399 357.362,601.749 351.357,597.586 C350.723,597.121 344.3,592.989 344.548,592.262 C348.695,580.407 356.093,584.725 368.892,587.433 C381.691,590.126 393.267,575.346 390.667,570.348 C386.813,562.935 383.857,567.098 376.769,552.875 C369.464,522.82 376.553,473.033 407.892,463.918 C435.285,455.932 465.2,464.738 472.257,467.106 C472.954,467.354 473.635,466.734 473.511,466.038 L465.696,422.318 L459.675,394.77 C459.861,393.95 460.619,393.362 461.47,393.486 C493.878,397.927 515.591,438.243 526.223,453.394 C536.855,468.545 556.99,484.78 573.596,489.299 C590.217,493.864 596.965,486.42 608.2,486.73 C619.436,487.039 625.549,497.625 643.656,497.718 C661.733,497.811 668.372,489.299 679.112,489.144 C687.175,489.02 695.115,493.431 695.115,493.431 C691.199,482.954 670.925,473.9 651.549,472.523 L651.596,472.507 z M241.291,549.486 C244.897,559.39 228.476,565.565 221.636,557.642 C215.507,550.492 217.132,525.312 251.319,529.15 L251.35,529.15 C251.35,529.15 236.648,536.749 241.291,549.486 z M298.831,546.808 C265.155,550.971 256.411,528.871 256.411,528.871 L256.411,528.84 C278.836,536.656 296.045,538.993 298.351,522.851 C300.657,506.71 281.916,498.012 266.455,495.412 C251.613,492.936 232.779,487.426 232.779,479.796 C232.779,472.167 243.194,460.668 281.653,460.668 C320.111,460.668 330.232,482.427 332.678,492.58 C335.138,502.763 332.492,542.645 298.816,546.808 L298.831,546.808 z" fill="#F7DF1E"/>
    </g>
  </g>
</svg>
