<?xml version="1.0" encoding="UTF-8"?>
<!DOCTYPE svg PUBLIC "-//W3C//DTD SVG 1.1//EN" "http://www.w3.org/Graphics/SVG/1.1/DTD/svg11.dtd">
<svg version="1.1" xmlns="http://www.w3.org/2000/svg" xmlns:xlink="http://www.w3.org/1999/xlink" x="0" y="0" width="1852" height="841.2" viewBox="0, 0, 1852, 841.2">
  <g id="Layer_1">
    <g>
      <path d="M979.52,588.873 L1053.61,588.873 L1053.61,263.011 L979.52,263.011 L979.52,389.194 L875.086,389.194 L875.086,263.011 L801,263.011 L801,588.873 L875.086,588.873 L875.086,459.148 L979.52,459.148 L979.52,588.873 z" fill="#F7DF1E"/>
      <path d="M1222.37,594.629 C1269.24,594.629 1306.73,575.148 1333.06,540.614 L1287.53,502.98 C1270.13,524.675 1248.71,535.301 1223.71,535.301 C1192.47,535.301 1169.71,518.476 1163.02,490.583 L1333.06,490.583 C1342.88,392.293 1283.52,348.461 1218.8,348.461 C1150.07,348.461 1096.52,398.492 1096.52,472.431 C1096.52,544.156 1146.95,594.629 1222.37,594.629 z M1163.91,442.324 C1171.5,419.744 1191.58,405.133 1218.36,405.133 C1244.69,405.133 1262.54,418.415 1267.9,442.324 L1163.91,442.324 z" fill="#F7DF1E"/>
      <path d="M1374.39,588.873 L1444.9,588.873 L1444.9,246.629 L1374.39,246.629 L1374.39,588.873 z" fill="#F7DF1E"/>
      <path d="M1493.81,588.873 L1564.32,588.873 L1564.32,354.217 L1493.81,354.217 L1493.81,588.873 z M1493.81,318.354 L1564.32,318.354 L1564.32,246.629 L1493.81,246.629 L1493.81,318.354 z" fill="#F7DF1E"/>
      <path d="M1720.79,593.301 C1747.12,593.301 1773,584.446 1789.07,567.621 L1789.52,588.873 L1852,588.873 L1852,354.217 L1789.52,354.217 L1789.07,375.469 C1773,358.644 1747.12,349.789 1720.79,349.789 C1656.97,349.789 1602.96,399.377 1602.96,471.545 C1602.96,543.713 1656.97,593.301 1720.79,593.301 z M1673.48,471.545 C1673.48,436.125 1697.58,413.545 1730.16,413.545 C1762.29,413.545 1785.95,436.125 1785.95,471.545 C1785.95,506.965 1762.29,529.545 1730.16,529.545 C1697.58,529.545 1673.48,506.965 1673.48,471.545 z" fill="#F7DF1E"/>
      <path d="M731,631.085 L731,210.114 L365.47,-0.371 L-0,210.114 L-0,631.085 L365.47,841.571 L730.97,631.085 L731,631.085 z" fill="#073A53"/>
      <path d="M730.97,631.085 L365.47,841.571 L-0,631.085 L-0,210.114 L365.47,-0.371 L731,210.114 L731,631.085 L730.97,631.085 z M724.659,627.402 L724.659,213.78 L365.47,6.946 L6.341,213.78 L6.341,627.42 L365.47,834.254 L724.659,627.402 z" fill="#F7DF1E"/>
      <path d="M226.999,677.659 L197.351,715.109 L210.334,677.659 C210.334,677.659 226.983,678.095 226.983,677.659 L227.014,677.659 L226.999,677.659 z" fill="#F7DF1E"/>
      <path d="M172.353,596.516 C163.209,601.119 154.985,612.277 152.863,622.232 C150.741,632.188 147.417,651.568 133.373,656.203 C133.373,656.203 141.846,660.244 152.005,653.316 C162.163,646.403 170.199,631.829 168.358,619.626 C165.83,603.008 172.946,596.251 172.353,596.547 L172.353,596.516 z" fill="#F7DF1E"/>
      <path d="M425.782,527.67 C425.782,527.67 430.853,535.675 451.747,535.488 C472.626,535.27 477.089,526.89 467.742,516.154 C458.364,505.419 447.066,502.126 432.445,506.011 C417.808,509.928 403.577,521.038 412.175,537.797 C420.773,554.556 457.443,605.489 472.844,619.923 C472.844,619.923 486.529,598.264 488.901,581.037 C491.601,561.828 492.74,539.576 481.411,543.087 C470.114,546.567 436.143,556.242 425.782,527.655 L425.782,527.686 L425.782,527.67 z" fill="#F7DF1E"/>
      <path d="M528.193,493.528 C528.193,493.528 537.711,516.17 544.14,526.625 C550.569,537.111 554.283,540.201 572.961,546.786 C591.64,553.355 664.371,579.086 673.281,580.928 C673.281,580.928 600.3,528.263 593.278,522.942 C586.241,517.59 575.208,517.122 566.33,517.808 C552.442,518.823 539.787,511.442 528.162,493.559 L528.193,493.559 L528.193,493.528 z" fill="#F7DF1E"/>
      <path d="M556.015,576.262 C556.015,576.262 551.396,592.163 559.417,607.908 C567.469,623.652 576.379,625.681 585.258,626.898 C594.136,628.115 609.023,632.609 613.127,644.89 C613.127,644.89 618.089,628.958 604.248,617.894 C590.407,606.862 572.228,606.956 564.66,597.593 C555.875,586.717 556.795,581.552 556.031,576.231 L556.031,576.262 L556.015,576.262 z" fill="#F7DF1E"/>
      <path d="M507.392,624.604 L546.887,708.867 L512.588,670.543 C512.588,670.543 512.776,645.186 504.755,634.716 L507.361,624.604 L507.392,624.604 z" fill="#F7DF1E"/>
      <path d="M467.305,699.504 L462.655,733.834 L451.701,715.514 L467.305,699.504 z" fill="#F7DF1E"/>
      <path d="M653.963,475.817 C634.442,474.429 633.241,453.503 612.846,449.025 C592.451,444.546 572.93,452.052 551.49,445.389 L547.729,439.553 L551.381,431.251 L708.204,406.862 L551.35,382.457 C551.069,381.801 550.991,381.614 550.725,380.943 C555.859,373.703 564.473,364.715 574.896,366.244 C591.968,368.741 606.043,374.951 617.012,366.088 C627.982,357.225 628.934,341.418 649.126,346.567 C671.159,352.169 684.61,349.625 691.492,330.495 C691.492,330.495 674.826,338.359 659.347,330.822 C643.867,323.285 633.038,318.23 618.823,325.938 C604.607,333.647 597.148,332.18 591.234,330.214 C585.367,328.263 567.531,321.101 539.631,333.85 L662.171,235.168 L514.758,292.217 C514.836,283.307 516.771,270.496 526.492,265.784 C542.018,258.247 557.139,255.469 561.227,241.972 C565.315,228.474 557.217,214.883 576.8,207.767 C598.178,200.012 607.868,190.337 602.797,170.644 C602.797,170.644 593.45,186.514 576.41,188.995 C559.37,191.476 547.573,193.38 540.161,207.751 C532.749,222.123 525.743,225.103 519.767,226.804 C513.868,228.474 495.393,232.531 479.586,258.122 C479.273,257.966 479.398,258.028 479.086,257.872 L536.51,109.491 L436.752,233.389 C436.627,233.296 436.674,233.327 436.549,233.233 C450.858,206.768 445.162,188.73 443.664,182.769 C442.151,176.73 441.246,169.178 450,155.586 C458.754,141.995 454.525,130.822 448.19,114.812 C441.854,98.802 450.936,82.777 450.936,82.777 C431.337,88.191 427.795,101.424 431.712,123.816 C435.316,144.351 419.493,144.102 409.819,154.369 C400.16,164.637 405.294,179.133 406.495,196.345 C407.26,207.252 396.867,215.382 389.143,219.86 L364.816,63.459 L340.364,220.656 C339.849,220.625 340.052,220.64 339.537,220.594 C338.585,190.587 324.604,177.869 320.328,173.484 C315.99,169.022 311.403,162.951 312.152,146.801 C312.901,130.651 303.616,123.114 290.087,112.472 C276.558,101.83 276.371,83.401 276.371,83.401 C262.155,97.944 265.729,111.161 280.381,128.544 C293.817,144.476 280.007,152.231 276.823,165.963 C273.625,179.695 285.359,189.65 295.049,203.928 C301.057,212.776 296.5,224.682 292.162,232.453 L193.138,109.476 L250.561,257.857 C250.249,258.013 250.374,257.95 250.062,258.106 C234.255,232.515 215.78,228.474 209.881,226.789 C203.889,225.088 196.898,222.107 189.486,207.736 C182.074,193.364 170.277,191.461 153.238,188.979 C136.198,186.498 126.851,170.629 126.851,170.629 C121.779,190.321 131.47,199.996 152.847,207.751 C172.431,214.867 164.332,228.458 168.421,241.956 C172.509,255.454 187.629,258.231 203.156,265.768 C212.877,270.481 214.812,283.292 214.89,292.202 L67.476,235.152 L190.017,333.834 C162.116,321.085 144.281,328.248 138.414,330.198 C132.5,332.164 125.041,333.631 110.825,325.923 C96.61,318.214 85.796,323.27 70.301,330.807 C54.821,338.344 38.156,330.479 38.156,330.479 C45.038,349.61 58.488,352.153 80.522,346.551 C100.714,341.418 101.665,357.209 112.635,366.072 C123.605,374.936 137.665,368.725 154.751,366.228 C165.175,364.699 173.788,373.687 178.922,380.928 C178.641,381.583 178.563,381.77 178.298,382.441 L21.444,406.846 L178.267,431.236 L166.47,438.492 C161.96,441.269 158.527,445.498 156.749,450.476 L154.626,456.421 C152.348,462.803 147.604,468.046 141.41,470.761 C132.843,474.507 124.385,474.46 114.383,472.525 C98.061,469.342 84.688,474.35 73.796,481.7 C66.166,486.85 59.846,501.299 53.994,506.48 C48.143,511.66 34.317,507.494 34.317,507.494 C43.337,521.694 69.489,522.49 75.856,514.719 C87.372,500.644 105.457,497.741 120.734,502.641 C134.747,507.151 152.551,499.489 162.522,490.298 C171.978,481.622 171.214,470.574 184.509,462.741 C196.118,455.891 210.661,456.047 210.661,456.047 C210.162,462.772 207.431,474.85 198.864,483.697 C188.581,494.308 67.414,594.816 67.414,594.816 L199.723,531.447 C201.455,572.065 209.491,616.599 216.841,634.232 C220.008,641.8 224.362,648.884 229.652,656.047 C244.523,676.176 263.591,692.779 285.094,705.559 L285.25,705.465 C308.094,719.072 339.303,735.254 360.462,736.924 C375.427,733.865 377.736,724.893 377.736,711.395 C377.736,697.897 371.666,694.012 365.331,693.653 C358.98,693.279 354.736,689.143 350.741,683.432 C346.731,677.721 358.044,677.144 373.617,676.894 C389.206,676.613 392.342,669.123 395.884,659.979 C399.395,650.851 385.57,649.977 357.7,653.285 C334.138,656.062 326.71,652.239 324.807,649.025 C337.93,637.072 353.331,626.243 361.367,628.318 C374.865,631.891 377.471,624.245 374.179,621.936 C371.245,619.892 357.295,606.129 351.24,601.931 C350.601,601.463 344.125,597.297 344.374,596.563 C348.556,584.61 356.015,588.964 368.92,591.695 C381.825,594.41 393.497,579.508 390.875,574.468 C386.99,566.993 384.009,571.191 376.863,556.85 C369.497,526.547 376.644,476.348 408.243,467.157 C435.862,459.105 466.025,467.984 473.141,470.371 C473.843,470.621 474.53,469.997 474.405,469.295 L466.525,425.213 L460.455,397.437 C460.642,396.61 461.407,396.017 462.265,396.142 C494.94,400.62 516.833,441.269 527.553,456.546 C538.273,471.823 558.574,488.191 575.318,492.748 C592.077,497.351 598.88,489.846 610.209,490.158 C621.538,490.47 627.701,501.143 645.958,501.237 C664.184,501.33 670.878,492.748 681.708,492.592 C689.838,492.467 697.843,496.914 697.843,496.914 C693.895,486.35 673.453,477.222 653.917,475.833 L653.963,475.817 z M240.263,553.433 C243.898,563.42 227.342,569.646 220.445,561.656 C214.266,554.447 215.904,529.059 250.374,532.929 L250.405,532.929 C250.405,532.929 235.581,540.591 240.263,553.433 z M298.279,550.733 C264.324,554.931 255.508,532.648 255.508,532.648 L255.508,532.617 C278.119,540.497 295.471,542.853 297.796,526.578 C300.121,510.303 281.224,501.533 265.635,498.912 C250.671,496.415 231.68,490.86 231.68,483.167 C231.68,475.474 242.182,463.88 280.959,463.88 C319.735,463.88 329.94,485.82 332.406,496.056 C334.887,506.324 332.219,546.536 298.264,550.733 L298.279,550.733 z" fill="#F7DF1E"/>
    </g>
  </g>
</svg>
